<svg
    viewBox="0 0 121 14"
    xmlns="http://www.w3.org/2000/svg">
    <path
      d="M118.478 6.861c0-3.723-1.286-6.17-4.148-6.17-2.81 0-4.15 2.447-4.15
      6.17 0 3.83 1.34 6.356 4.15 6.356 2.862 0 4.148-2.526 4.148-6.356m-10.66
      0c0-4.228 2.914-6.861 6.512-6.861 3.65 0 6.512 2.606 6.512 6.861 0
      4.362-2.836 7.048-6.512 7.048-3.624 0-6.512-2.633-6.512-7.048zm-91.89
      6.782V.293h1.948v13.35h-1.948zm69.519 0h-2.101V.293h2.1v2.632C86.025 1.223
      87.443 0 89.49 0c2.022 0 3.86.93 4.464 3.324C94.505 1.41 95.924 0 98.155
      0c2.469 0 4.674 1.356 4.674
      5.08v8.563h-2.1V4.627c0-2.686-1.287-3.803-2.941-3.803-1.943 0-3.65
      1.65-3.65 5.505v7.314h-2.1V4.627c0-2.686-1.261-3.803-2.942-3.803-1.943
      0-3.65 1.676-3.65 5.532v7.287zM50.735
      6.86c0-3.723-1.287-6.17-4.149-6.17-2.81 0-4.149 2.447-4.149 6.17 0 3.83
      1.34 6.356 4.149 6.356 2.862 0 4.149-2.526 4.149-6.356zm-10.661 0c0-4.227
      2.914-6.86 6.512-6.86 3.65 0 6.512 2.606 6.512 6.861 0 4.362-2.836
      7.048-6.512 7.048-3.624 0-6.512-2.633-6.512-7.048zm-14.019
      6.782h-2.1V.293h2.074v3.031C26.581 1.41 28.129 0 30.335 0c2.679 0 4.78
      1.356 4.78 5.319v8.324h-2.101v-8.75c0-2.925-1.234-4.069-3.046-4.069-2.153
      0-3.913 1.942-3.913 6.064v6.755zM0 9.627h1.786c.105 2.128 1.339 3.617
      3.702 3.617 1.943 0 3.518-.93 3.518-2.686
      0-1.41-1.102-2.128-3.072-2.606l-1.523-.373C1.917 6.968.604 6.17.604
      4.042.604 1.542 2.914 0 5.54 0c2.836 0 4.78 1.436 4.99 3.617H8.77C8.613
      1.862 7.536.69 5.54.69c-1.916 0-3.334 1.09-3.334 2.58 0 1.25.787 1.862 2.6
      2.26l1.575.346c2.783.612 4.28 1.623 4.28 3.936 0 2.74-2.6 4.122-5.173
      4.122-3.414 0-5.252-1.728-5.488-4.308zm75.39
      4.016V.293h1.948v13.35H75.39zm-15.066 0h-2.101V.293h2.074v3.031C60.85 1.41
      62.398 0 64.604 0c2.678 0 4.779 1.356 4.779
      5.319v8.324h-2.101v-8.75c0-2.925-1.234-4.069-3.046-4.069-2.153 0-3.912
      1.942-3.912 6.064v6.755z"
      fill-rule="evenodd" />
</svg>
